<svg xmlns="http://www.w3.org/2000/svg" id="Layer_2" width="196" height="44.18" viewBox="0 0 196 44.18"><g id="Layer_1-2"><path d="M13.47 5.65c2.19 4.85 5.55 12.3 7.75 17.15-.72-.12-8.06-13.5-9.04-15.69-1.1-2.12-2.57-2.26-3.84-1.14-6.88 7.35-7.6 16.98-4.23 24.69C8.82 40.81 19.87 44.2 30.07 42.41 24.2 45.75 8.82 45.53 2.28 31.25-1.86 22.03-.31 12.76 6.47 5.13c1.97-2.22 5.18-2.52 6.99.52"/><path d="M19.42 21.93c-5.55-2.48-9.87-4.79-10.83-7.16-.73-1.8.26-2.16 1.83-1.59 2.58.93 5.65 4.63 9.01 8.75m.22.95c-5.72 2.04-10.45 3.34-12.78 2.29-1.77-.8-1.3-1.74.23-2.41 2.5-1.11 7.27-.55 12.55.12m.21.83c-2.75 5.42-5.26 9.62-7.68 10.47-1.83.64-2.14-.36-1.5-1.9 1.06-2.53 4.9-5.41 9.18-8.57m.58.31c1.74 5.81 2.82 10.6 1.65 12.88-.89 1.73-1.8 1.21-2.4-.34-.98-2.57-.19-7.31.74-12.54"/><path d="M195.67 5.99c-.21-.3-.48-.53-.83-.7-.61-.3-1.4-.3-2.03.02-.72.34-1.14 1.05-1.14 1.77 0 .76.44 1.44 1.06 1.75.73.38 1.65.36 2.34-.08.86-.54 1.23-1.84.59-2.76Zm-.82 2.46c-.57.36-1.32.38-1.92.07-.5-.26-.87-.81-.88-1.44 0-.6.35-1.17.95-1.45.51-.26 1.15-.26 1.66-.01.28.14.51.34.67.59.54.75.23 1.81-.48 2.25Zm-.23-.66c-.03-.07-.07-.14-.12-.23-.06-.07-.11-.16-.18-.23a.54.54 0 0 0-.2-.17c.17-.03.3-.1.38-.19a.48.48 0 0 0 .12-.35c0-.07-.01-.15-.04-.2-.02-.06-.07-.12-.1-.17-.05-.05-.11-.08-.16-.11a.6.6 0 0 0-.17-.05c-.07 0-.14-.01-.24-.01h-.64c-.09 0-.15.02-.19.06-.03.04-.07.1-.07.19v1.51c0 .08.03.15.07.18.03.05.07.07.14.07.06 0 .1-.03.15-.06.03-.04.05-.11.05-.2V7.2h.14c.07 0 .13.02.17.03.05.02.09.06.14.11s.11.12.16.23l.15.27c.05.06.07.11.09.13.03.03.04.06.08.09.03.02.07.04.11.04s.06-.02.1-.03c.03-.01.05-.03.07-.06.02-.02.03-.05.03-.08 0-.02-.02-.07-.05-.13Zm-.61-.9c-.05.01-.15.03-.24.03h-.36v-.56h.37c.14 0 .23.02.28.04q.075.03.12.09c.02.05.05.09.05.15 0 .07-.03.12-.06.16a.3.3 0 0 1-.16.09M67.62 4.27C70.32 3.05 72.61 1.8 73 .91c.36-.85-.11-1.08-.87-.8-1.25.46-2.81 2.21-4.51 4.16m23.91 4.57c0-.68-.55-1.23-1.23-1.23h-3.7c-3.88 0-7.02 3.14-7.02 7.02v10.16c0 .76.62 1.38 1.38 1.38s1.38-.62 1.38-1.38V14.52c0-2.46 1.99-4.45 4.45-4.45h3.51c.68 0 1.23-.55 1.23-1.23m-41.54.03c1.46.82 2.62 1.94 3.46 3.37q1.26 2.145 1.26 4.77c0 2.625-.41 3.33-1.23 4.75a9.1 9.1 0 0 1-3.35 3.36c-1.42.82-3 1.23-4.75 1.23-1.5 0-2.87-.31-4.11-.92a8.55 8.55 0 0 1-3.08-2.53v9.83c0 .38-.13.69-.38.94s-.58.37-.97.37-.71-.12-.95-.37-.36-.56-.36-.94v-7.52q-.03-.105-.03-.3v-7.89c0-1.75.42-3.33 1.26-4.77a8.97 8.97 0 0 1 3.46-3.37c1.46-.82 3.09-1.22 4.89-1.22s3.43.41 4.89 1.22Zm-1.31 14.21c1.07-.6 1.91-1.44 2.52-2.5s.92-2.25.92-3.57-.31-2.51-.92-3.57a6.77 6.77 0 0 0-2.52-2.52c-1.07-.62-2.26-.92-3.58-.92s-2.5.31-3.56.92c-1.06.62-1.9 1.45-2.51 2.52-.61 1.06-.92 2.25-.92 3.57q0 .57.03.84c.02.05.03.1.03.17.23 1.75.99 3.18 2.26 4.3S43.26 24 45.08 24c1.31 0 2.51-.3 3.58-.91ZM71.85 8.8q1.965 1.155 3.06 3.21c.73 1.36 1.09 2.92 1.09 4.67 0 .36-.12.64-.35.86-.23.21-.53.32-.9.32H60.78c.18 1.84.92 3.32 2.21 4.46s2.9 1.71 4.84 1.71c.83 0 1.66-.14 2.51-.42s1.52-.63 2.02-1.06c.3-.22.61-.34.93-.34.25 0 .51.09.76.27.3.27.45.57.45.91 0 .29-.13.55-.38.77-.76.63-1.73 1.15-2.9 1.56-1.18.41-2.3.62-3.39.62-1.84 0-3.49-.4-4.94-1.19a8.55 8.55 0 0 1-3.4-3.32c-.82-1.42-1.23-3.03-1.23-4.82s.39-3.43 1.16-4.85 1.84-2.53 3.21-3.32 2.93-1.19 4.68-1.19 3.21.39 4.53 1.16Zm-8.88 2.73c-1.15 1.05-1.86 2.44-2.11 4.16h12.65c-.18-1.72-.83-3.11-1.94-4.16s-2.52-1.58-4.25-1.58-3.2.53-4.36 1.58Zm33.85 13.58a9 9 0 0 1-3.37-3.36c-.82-1.42-1.23-3-1.23-4.75s.39-3.39 1.18-4.82a8.6 8.6 0 0 1 3.25-3.34c1.38-.81 2.94-1.21 4.67-1.21 2.88 0 5.22 1.07 7.02 3.22.18.2.28.44.28.7 0 .36-.2.67-.59.94-.21.13-.43.2-.66.2-.35 0-.68-.17-1-.5-.69-.74-1.45-1.29-2.28-1.66s-1.75-.55-2.77-.55c-1.27 0-2.4.3-3.39.89s-1.76 1.43-2.3 2.5-.81 2.28-.81 3.62.29 2.51.86 3.57c.58 1.06 1.38 1.9 2.42 2.5s2.22.91 3.56.91c1.84 0 3.33-.48 4.46-1.44.3-.25.61-.37.93-.37.28 0 .53.09.76.27.32.27.48.57.48.91 0 .29-.12.54-.35.74-1.66 1.5-3.76 2.25-6.29 2.25-1.8 0-3.41-.41-4.84-1.23Zm15.5-21.33c-.36-.36-.54-.79-.54-1.31s.18-.97.55-1.31.82-.5 1.35-.5.94.17 1.31.5c.37.34.55.77.55 1.31s-.18.95-.55 1.31q-.555.54-1.35.54c-.795 0-.97-.18-1.33-.54Zm.4 22.02c-.25-.25-.38-.56-.38-.94V9.12c0-.38.13-.69.38-.94s.58-.37.97-.37.71.12.95.37.36.56.36.94v15.74c0 .38-.12.69-.36.94s-.56.37-.95.37-.71-.12-.97-.37m40.17-.67c-1.46-.81-2.61-1.92-3.44-3.34s-1.24-3.02-1.24-4.78.42-3.37 1.24-4.8a8.9 8.9 0 0 1 3.44-3.36c1.46-.81 3.11-1.21 4.93-1.21s3.46.4 4.91 1.21 2.6 1.92 3.44 3.36q1.26 2.145 1.26 4.8c0 2.655-.42 3.36-1.24 4.78-.83 1.42-1.98 2.53-3.44 3.34s-3.11 1.21-4.93 1.21-3.46-.4-4.93-1.21m8.52-2.05c1.06-.6 1.89-1.44 2.49-2.5q.9-1.59.9-3.57c0-1.98-.3-2.54-.9-3.61-.6-1.06-1.43-1.9-2.49-2.5s-2.26-.91-3.6-.91-2.51.3-3.58.91-1.91 1.44-2.52 2.5-.92 2.27-.92 3.61.31 2.51.92 3.57 1.45 1.9 2.52 2.5 2.26.91 3.58.91 2.53-.3 3.6-.91M143.9 11.32c-.59-1.15-1.41-2.04-2.45-2.67-1.05-.63-2.25-.94-3.61-.94s-2.54.28-3.61.84a7 7 0 0 0-2.59 2.32c-.01 0-.03 0-.05.01-.02-.02-.03-.02-.05-.01a7.05 7.05 0 0 0-2.59-2.32c-1.07-.56-2.28-.84-3.61-.84s-2.56.31-3.61.94-1.87 1.52-2.45 2.67c-.59 1.15-.88 2.49-.88 4.01V25c0 .38.12.69.36.92s.56.35.95.35.71-.12.97-.35c.25-.23.38-.54.38-.92v-9.67q0-2.385 1.26-3.78c.84-.93 1.94-1.39 3.3-1.39 1.45 0 2.63.47 3.53 1.41s1.34 2.17 1.31 3.69v9.73c0 .38.12.69.36.92.12.12.26.2.41.26-.02.06-.03.09.17.09.07 0 .13 0 .19-.01.06 0 .12.01.19.01.2 0 .19-.03.17-.09.16-.06.29-.15.41-.26.24-.23.36-.54.36-.92v-9.73c-.02-1.52.41-2.75 1.31-3.69s2.07-1.41 3.53-1.41c1.36 0 2.46.46 3.3 1.39q1.26 1.395 1.26 3.78V25c0 .38.13.69.38.92s.58.35.97.35.71-.12.95-.35.36-.54.36-.92v-9.67c0-1.52-.29-2.86-.88-4.01m43.43.23a7.34 7.34 0 0 0-3.06-2.94c-1.3-.67-2.77-1.01-4.41-1.01h-.36c-1.64 0-3.11.34-4.41 1.01q-1.95 1.005-3.06 2.94t-1.11 4.62v8.73c0 .36.13.66.38.91s.57.37.93.37c.39 0 .71-.12.97-.37.25-.25.38-.55.38-.91v-8.73c0-1.99.57-3.51 1.71-4.55q1.68-1.53 4.38-1.56 2.7.03 4.38 1.56c1.14 1.04 1.71 2.56 1.71 4.55v8.73c0 .36.13.66.38.91s.57.37.97.37c.37 0 .68-.12.93-.37s.38-.55.38-.91v-8.73q0-2.685-1.11-4.62Zm8.34-5.56c-.21-.3-.48-.53-.83-.7-.61-.3-1.4-.3-2.03.02-.72.34-1.14 1.05-1.14 1.77 0 .76.44 1.44 1.06 1.75.73.38 1.65.36 2.34-.08.86-.54 1.23-1.84.59-2.76Zm-.82 2.46c-.57.36-1.32.38-1.92.07-.5-.26-.87-.81-.88-1.44 0-.6.35-1.17.95-1.45.51-.26 1.15-.26 1.66-.01.28.14.51.34.67.59.54.75.23 1.81-.48 2.25Zm-.23-.66c-.03-.07-.07-.14-.12-.23-.06-.07-.11-.16-.18-.23a.54.54 0 0 0-.2-.17c.17-.03.3-.1.38-.19a.48.48 0 0 0 .12-.35c0-.07-.01-.15-.04-.2-.02-.06-.07-.12-.1-.17-.05-.05-.11-.08-.16-.11a.6.6 0 0 0-.17-.05c-.07 0-.14-.01-.24-.01h-.64c-.09 0-.15.02-.19.06-.03.04-.07.1-.07.19v1.51c0 .08.03.15.07.18.03.05.07.07.14.07.06 0 .1-.03.15-.06.03-.04.05-.11.05-.2V7.2h.14c.07 0 .13.02.17.03.05.02.09.06.14.11s.11.12.16.23l.15.27c.05.06.07.11.09.13.03.03.04.06.08.09.03.02.07.04.11.04s.06-.02.1-.03c.03-.01.05-.03.07-.06.02-.02.03-.05.03-.08 0-.02-.02-.07-.05-.13Zm-.61-.9c-.05.01-.15.03-.24.03h-.36v-.56h.37c.14 0 .23.02.28.04q.075.03.12.09c.02.05.05.09.05.15 0 .07-.03.12-.06.16a.3.3 0 0 1-.16.09M91.53 8.84c0-.68-.55-1.23-1.23-1.23h-3.7c-3.88 0-7.02 3.14-7.02 7.02v10.16c0 .76.62 1.38 1.38 1.38s1.38-.62 1.38-1.38V14.52c0-2.46 1.99-4.45 4.45-4.45h3.51c.68 0 1.23-.55 1.23-1.23m-41.54.03c1.46.82 2.62 1.94 3.46 3.37q1.26 2.145 1.26 4.77c0 2.625-.41 3.33-1.23 4.75a9.1 9.1 0 0 1-3.35 3.36c-1.42.82-3 1.23-4.75 1.23-1.5 0-2.87-.31-4.11-.92a8.55 8.55 0 0 1-3.08-2.53v9.83c0 .38-.13.69-.38.94s-.58.37-.97.37-.71-.12-.95-.37-.36-.56-.36-.94v-7.52q-.03-.105-.03-.3v-7.89c0-1.75.42-3.33 1.26-4.77a8.97 8.97 0 0 1 3.46-3.37c1.46-.82 3.09-1.22 4.89-1.22s3.43.41 4.89 1.22Zm-1.31 14.21c1.07-.6 1.91-1.44 2.52-2.5s.92-2.25.92-3.57-.31-2.51-.92-3.57a6.77 6.77 0 0 0-2.52-2.52c-1.07-.62-2.26-.92-3.58-.92s-2.5.31-3.56.92c-1.06.62-1.9 1.45-2.51 2.52-.61 1.06-.92 2.25-.92 3.57q0 .57.03.84c.02.05.03.1.03.17.23 1.75.99 3.18 2.26 4.3S43.26 24 45.08 24c1.31 0 2.51-.3 3.58-.91ZM71.85 8.8q1.965 1.155 3.06 3.21c.73 1.36 1.09 2.92 1.09 4.67 0 .36-.12.64-.35.86-.23.21-.53.32-.9.32H60.78c.18 1.84.92 3.32 2.21 4.46s2.9 1.71 4.84 1.71c.83 0 1.66-.14 2.51-.42s1.52-.63 2.02-1.06c.3-.22.61-.34.93-.34.25 0 .51.09.76.27.3.27.45.57.45.91 0 .29-.13.55-.38.77-.76.63-1.73 1.15-2.9 1.56-1.18.41-2.3.62-3.39.62-1.84 0-3.49-.4-4.94-1.19a8.55 8.55 0 0 1-3.4-3.32c-.82-1.42-1.23-3.03-1.23-4.82s.39-3.43 1.16-4.85 1.84-2.53 3.21-3.32 2.93-1.19 4.68-1.19 3.21.39 4.53 1.16Zm-8.88 2.73c-1.15 1.05-1.86 2.44-2.11 4.16h12.65c-.18-1.72-.83-3.11-1.94-4.16s-2.52-1.58-4.25-1.58-3.2.53-4.36 1.58Zm33.85 13.58a9 9 0 0 1-3.37-3.36c-.82-1.42-1.23-3-1.23-4.75s.39-3.39 1.18-4.82a8.6 8.6 0 0 1 3.25-3.34c1.38-.81 2.94-1.21 4.67-1.21 2.88 0 5.22 1.07 7.02 3.22.18.2.28.44.28.7 0 .36-.2.67-.59.94-.21.13-.43.2-.66.2-.35 0-.68-.17-1-.5-.69-.74-1.45-1.29-2.28-1.66s-1.75-.55-2.77-.55c-1.27 0-2.4.3-3.39.89s-1.76 1.43-2.3 2.5-.81 2.28-.81 3.62.29 2.51.86 3.57c.58 1.06 1.38 1.9 2.42 2.5s2.22.91 3.56.91c1.84 0 3.33-.48 4.46-1.44.3-.25.61-.37.93-.37.28 0 .53.09.76.27.32.27.48.57.48.91 0 .29-.12.54-.35.74-1.66 1.5-3.76 2.25-6.29 2.25-1.8 0-3.41-.41-4.84-1.23Zm15.5-21.33c-.36-.36-.54-.79-.54-1.31s.18-.97.55-1.31.82-.5 1.35-.5.94.17 1.31.5c.37.34.55.77.55 1.31s-.18.95-.55 1.31q-.555.54-1.35.54c-.795 0-.97-.18-1.33-.54Zm.4 22.02c-.25-.25-.38-.56-.38-.94V9.12c0-.38.13-.69.38-.94s.58-.37.97-.37.71.12.95.37.36.56.36.94v15.74c0 .38-.12.69-.36.94s-.56.37-.95.37-.71-.12-.97-.37m40.17-.67c-1.46-.81-2.61-1.92-3.44-3.34s-1.24-3.02-1.24-4.78.42-3.37 1.24-4.8a8.9 8.9 0 0 1 3.44-3.36c1.46-.81 3.11-1.21 4.93-1.21s3.46.4 4.91 1.21 2.6 1.92 3.44 3.36q1.26 2.145 1.26 4.8c0 2.655-.42 3.36-1.24 4.78-.83 1.42-1.98 2.53-3.44 3.34s-3.11 1.21-4.93 1.21-3.46-.4-4.93-1.21m8.52-2.05c1.06-.6 1.89-1.44 2.49-2.5q.9-1.59.9-3.57c0-1.98-.3-2.54-.9-3.61-.6-1.06-1.43-1.9-2.49-2.5s-2.26-.91-3.6-.91-2.51.3-3.58.91-1.91 1.44-2.52 2.5-.92 2.27-.92 3.61.31 2.51.92 3.57 1.45 1.9 2.52 2.5 2.26.91 3.58.91 2.53-.3 3.6-.91M143.9 11.32c-.59-1.15-1.41-2.04-2.45-2.67-1.05-.63-2.25-.94-3.61-.94s-2.54.28-3.61.84a7 7 0 0 0-2.59 2.32c-.01 0-.03 0-.05.01-.02-.02-.03-.02-.05-.01a7.05 7.05 0 0 0-2.59-2.32c-1.07-.56-2.28-.84-3.61-.84s-2.56.31-3.61.94-1.87 1.52-2.45 2.67c-.59 1.15-.88 2.49-.88 4.01V25c0 .38.12.69.36.92s.56.35.95.35.71-.12.97-.35c.25-.23.38-.54.38-.92v-9.67q0-2.385 1.26-3.78c.84-.93 1.94-1.39 3.3-1.39 1.45 0 2.63.47 3.53 1.41s1.34 2.17 1.31 3.69v9.73c0 .38.12.69.36.92.12.12.26.2.41.26-.02.06-.03.09.17.09.07 0 .13 0 .19-.01.06 0 .12.01.19.01.2 0 .19-.03.17-.09.16-.06.29-.15.41-.26.24-.23.36-.54.36-.92v-9.73c-.02-1.52.41-2.75 1.31-3.69s2.07-1.41 3.53-1.41c1.36 0 2.46.46 3.3 1.39q1.26 1.395 1.26 3.78V25c0 .38.13.69.38.92s.58.35.97.35.71-.12.95-.35.36-.54.36-.92v-9.67c0-1.52-.29-2.86-.88-4.01m43.43.23a7.34 7.34 0 0 0-3.06-2.94c-1.3-.67-2.77-1.01-4.41-1.01h-.36c-1.64 0-3.11.34-4.41 1.01q-1.95 1.005-3.06 2.94t-1.11 4.62v8.73c0 .36.13.66.38.91s.57.37.93.37c.39 0 .71-.12.97-.37.25-.25.38-.55.38-.91v-8.73c0-1.99.57-3.51 1.71-4.55q1.68-1.53 4.38-1.56 2.7.03 4.38 1.56c1.14 1.04 1.71 2.56 1.71 4.55v8.73c0 .36.13.66.38.91s.57.37.97.37c.37 0 .68-.12.93-.37s.38-.55.38-.91v-8.73q0-2.685-1.11-4.62Z" style="fill:#34d5ae"/></g></svg>